HIERARCHY
ROOT Hips
{
	OFFSET 52.394402 -34.605515 84.585793
	CHANNELS 6 Xposition Yposition Zposition Xrotation Yrotation Zrotation
	JOINT spine
	{
		OFFSET 0.000000 -0.342407 5.954376
		CHANNELS 3 Xrotation Yrotation Zrotation
		JOINT spine1
		{
			OFFSET 0.000000 0.000000 8.856018
			CHANNELS 3 Xrotation Yrotation Zrotation
			JOINT spine2
			{
				OFFSET 0.000000 -0.000004 8.485672
				CHANNELS 3 Xrotation Yrotation Zrotation
				JOINT Neck
				{
					OFFSET 0.000000 -1.038704 21.786308
					CHANNELS 3 Xrotation Yrotation Zrotation
					JOINT Head
					{
						OFFSET 0.000000 0.000000 6.582199
						CHANNELS 3 Xrotation Yrotation Zrotation
						End Site
						{
							OFFSET 0.000000 5.254358 15.932602
						}
					}
				}
				JOINT RightShoulder
				{
					OFFSET -3.573071 0.497524 9.163864
					CHANNELS 3 Xrotation Yrotation Zrotation
					JOINT RightArm
					{
						OFFSET 0.000000 -0.000004 12.019203
						CHANNELS 3 Xrotation Yrotation Zrotation
						JOINT RightArmRoll
						{
							OFFSET 0.000000 0.000000 6.067551
							CHANNELS 3 Xrotation Yrotation Zrotation
							JOINT RightForeArm
							{
								OFFSET 0.000000 -0.000004 17.672607
								CHANNELS 3 Xrotation Yrotation Zrotation
								JOINT RightForeArmRoll
								{
									OFFSET 0.000000 0.000000 6.808716
									CHANNELS 3 Xrotation Yrotation Zrotation
									JOINT RightHand
									{
										OFFSET 0.000000 0.000000 13.663605
										CHANNELS 3 Xrotation Yrotation Zrotation
										End Site
										{
											OFFSET 0.000000 0.000000 0.100006
										}
									}
								}
							}
						}
					}
				}
				JOINT LeftShoulder
				{
					OFFSET 3.573071 0.497524 9.163864
					CHANNELS 3 Xrotation Yrotation Zrotation
					JOINT LeftArm
					{
						OFFSET 0.000000 -0.000004 12.019203
						CHANNELS 3 Xrotation Yrotation Zrotation
						JOINT LeftArmRoll
						{
							OFFSET 0.000000 0.000000 6.067551
							CHANNELS 3 Xrotation Yrotation Zrotation
							JOINT LeftForeArm
							{
								OFFSET 0.000000 -0.000004 17.672607
								CHANNELS 3 Xrotation Yrotation Zrotation
								JOINT LeftForeArmRoll
								{
									OFFSET 0.000000 0.000000 6.808716
									CHANNELS 3 Xrotation Yrotation Zrotation
									JOINT LeftHand
									{
										OFFSET 0.000000 0.000000 13.663605
										CHANNELS 3 Xrotation Yrotation Zrotation
										End Site
										{
											OFFSET 0.000000 0.000000 0.100006
										}
									}
								}
							}
						}
					}
				}
			}
		}
	}
	JOINT RightUpLeg
	{
		OFFSET -5.277740 0.811859 -0.967796
		CHANNELS 3 Xrotation Yrotation Zrotation
		JOINT RightUpLegRoll
		{
			OFFSET 0.000000 0.000000 16.021400
			CHANNELS 3 Xrotation Yrotation Zrotation
			JOINT RightLeg
			{
				OFFSET 0.000000 0.000004 -19.840103
				CHANNELS 3 Xrotation Yrotation Zrotation
				JOINT RightLegRoll
				{
					OFFSET 0.000000 -0.000004 19.904999
					CHANNELS 3 Xrotation Yrotation Zrotation
					JOINT RightFoot
					{
						OFFSET 0.000000 -0.000004 16.567497
						CHANNELS 3 Xrotation Yrotation Zrotation
						JOINT RightToeBase
						{
							OFFSET 0.000000 -0.000004 13.849609
							CHANNELS 3 Xrotation Yrotation Zrotation
							End Site
							{
								OFFSET 0.005871 0.773117 6.707275
							}
						}
					}
				}
			}
		}
	}
	JOINT LeftUpLeg
	{
		OFFSET 5.277740 0.811859 -0.967796
		CHANNELS 3 Xrotation Yrotation Zrotation
		JOINT LeftUpLegRoll
		{
			OFFSET 0.000000 0.000000 16.021500
			CHANNELS 3 Xrotation Yrotation Zrotation
			JOINT LeftLeg
			{
				OFFSET 0.000000 -0.000004 19.840004
				CHANNELS 3 Xrotation Yrotation Zrotation
				JOINT LeftLegRoll
				{
					OFFSET 0.000000 -0.000004 20.089012
					CHANNELS 3 Xrotation Yrotation Zrotation
					JOINT LeftFoot
					{
						OFFSET 0.000000 -0.000004 16.383499
						CHANNELS 3 Xrotation Yrotation Zrotation
						JOINT LeftToeBase
						{
							OFFSET 0.000000 0.000000 13.849594
							CHANNELS 3 Xrotation Yrotation Zrotation
							End Site
							{
								OFFSET -0.026310 0.773113 6.707275
							}
						}
					}
				}
			}
		}
	}
}
MOTION
Frames: 6
Frame Time: 0.041667
48.381500 -3.946371 68.750984 35.650398 7.726005 5.174944 1.674331 -1.082718 0.189437 7.359107 -2.156160 0.420814 9.004680 -2.150936 0.446470 22.440721 4.844686 -4.504111 2.291769 -7.430316 -3.940195 184.206992 -108.581238 183.220398 117.586133 -51.625356 108.101944 -0.000001 -0.000000 -0.000002 -0.033381 3.661090 -1.990735 0.000000 0.000001 -3.011600 -5.000165 -7.999920 0.000014 -8.140727 68.702557 10.211708 -61.450679 131.570808 72.271038 0.000000 0.000026 0.000002 -0.030701 -3.658681 1.990651 0.000003 0.000000 3.011611 -5.000170 7.999928 -0.000019 -90.950054 -184.674136 -2.931229 -179.999991 0.000005 -0.464994 123.570908 0.418053 -2.394116 0.000003 -0.000005 1.057441 71.212891 6.898474 1.953583 25.456957 -7.355613 0.000011 -91.922899 183.303904 5.408146 -0.000004 -0.000004 -0.465639 -54.633846 -2.514409 0.779912 0.000001 -0.000002 -0.768699 66.145929 -7.077435 -1.865258 25.456854 7.355609 0.000010 
48.376205 -4.021250 68.840576 35.633968 7.714540 5.161626 1.673159 -1.080190 0.189292 7.356510 -2.151115 0.420294 9.002083 -2.145903 0.445918 22.414031 4.854165 -4.506037 2.314764 -7.461652 -3.938851 184.415955 -108.478451 183.435645 117.407004 -51.666235 108.007912 -0.000000 -0.000001 0.000001 -0.033519 3.662271 -1.990737 0.000000 0.000002 -3.011602 -5.000163 -7.999919 0.000018 -8.128568 68.777293 10.202889 -61.605096 131.532163 72.347194 0.000002 0.000026 0.000003 -0.030702 -3.658091 1.990651 0.000004 0.000000 3.011611 -5.000171 7.999928 -0.000018 -90.764731 -184.707030 -2.947275 -179.999991 0.000006 -0.463998 123.723645 0.425290 -2.382914 0.000003 -0.000005 1.055300 71.218902 6.897922 1.954319 25.456955 -7.355615 0.000011 -91.726838 183.270668 5.423906 -0.000003 -0.000005 -0.465636 -54.486601 -2.505861 0.781231 0.000001 -0.000002 -0.764262 66.152902 -7.076595 -1.866829 25.456853 7.355611 0.000010 
48.385506 -4.095163 68.944679 35.617131 7.702944 5.148173 1.671811 -1.077750 0.189145 7.353556 -2.146258 0.419780 8.999127 -2.141062 0.445374 22.387079 4.867119 -4.507942 2.338130 -7.495905 -3.937304 184.629876 -108.379065 183.656574 117.233176 -51.705939 107.918410 -0.000001 -0.000000 0.000000 -0.033652 3.663530 -1.990741 -0.000003 0.000001 -3.011597 -5.000160 -7.999918 0.000011 -8.118732 68.850814 10.196621 -61.758591 131.494174 72.423802 0.000004 0.000026 0.000003 -0.030703 -3.657440 1.990649 0.000005 0.000000 3.011610 -5.000175 7.999928 -0.000018 -90.579551 -184.739378 -2.962214 -179.999991 0.000006 -0.463996 123.876272 0.432566 -2.370747 0.000003 -0.000005 1.053140 71.225103 6.897374 1.955044 25.456959 -7.355614 0.000012 -91.530238 183.237761 5.439353 0.000001 -0.000004 -0.465644 -54.339284 -2.497595 0.782338 0.000001 -0.000002 -0.759818 66.159985 -7.075726 -1.868487 25.456851 7.355610 0.000011 
48.382805 -4.160805 69.022484 35.599889 7.691259 5.134654 1.670308 -1.075423 0.188997 7.350233 -2.141624 0.419268 8.995795 -2.136429 0.444836 22.359813 4.882873 -4.509799 2.362051 -7.532147 -3.935565 184.847377 -108.283169 183.881670 117.061287 -51.745858 107.828866 -0.000002 0.000000 -0.000000 -0.033786 3.664850 -1.990738 0.000001 0.000001 -3.011601 -5.000159 -7.999919 0.000013 -8.110634 68.922530 10.192183 -61.909108 131.457728 72.499248 0.000002 0.000026 0.000003 -0.030705 -3.656740 1.990651 0.000002 0.000001 3.011611 -5.000170 7.999928 -0.000018 -90.394535 -184.770865 -2.976764 -179.999991 0.000005 -0.463996 124.028818 0.438757 -2.360269 0.000003 -0.000005 1.050959 71.231414 6.896790 1.955758 25.456957 -7.355613 0.000010 -91.333392 183.205290 5.455599 -0.000003 -0.000004 -0.465664 -54.192002 -2.489621 0.783243 0.000001 -0.000002 -0.755381 66.167075 -7.074898 -1.870154 25.456853 7.355611 0.000010 
48.388405 -4.228638 69.109184 35.582123 7.679492 5.121481 1.668601 -1.073195 0.188842 7.346550 -2.137198 0.418756 8.992092 -2.132015 0.444304 22.332109 4.900759 -4.511539 2.386691 -7.569473 -3.933629 185.066995 -108.190627 184.109347 116.893428 -51.784947 107.741719 0.000001 0.000000 -0.000001 -0.033923 3.666210 -1.990732 -0.000001 0.000002 -3.011601 -5.000163 -7.999920 0.000014 -8.103793 68.991775 10.189017 -62.056319 131.422538 72.574073 0.000001 0.000026 0.000003 -0.030702 -3.656020 1.990652 0.000003 0.000000 3.011611 -5.000174 7.999929 -0.000018 -90.209723 -184.801150 -2.990713 -179.999991 0.000005 -0.463997 124.181268 0.443862 -2.349473 0.000003 -0.000005 1.048723 71.237732 6.896237 1.956474 25.456955 -7.355614 0.000010 -91.136566 183.173516 5.471712 -0.000006 -0.000004 -0.465697 -54.044736 -2.481900 0.783953 0.000001 -0.000002 -0.750967 66.174165 -7.074066 -1.871820 25.456854 7.355611 0.000010 
48.389095 -4.320532 69.186295 35.563951 7.667654 5.108532 1.666733 -1.071096 0.188684 7.342478 -2.133011 0.418246 8.988039 -2.127833 0.443775 22.303877 4.920085 -4.513112 2.412225 -7.606942 -3.931525 185.287254 -108.101623 184.338008 116.730378 -51.822438 107.657845 -0.000001 0.000001 -0.000001 -0.034057 3.667581 -1.990731 -0.000002 0.000002 -3.011601 -5.000162 -7.999920 0.000015 -8.097621 69.057959 10.186390 -62.196953 131.389740 72.644956 0.000001 0.000026 0.000002 -0.030704 -3.655291 1.990651 0.000001 0.000000 3.011610 -5.000172 7.999930 -0.000018 -90.025138 -184.829960 -3.004140 -179.999991 0.000004 -0.463998 124.333635 0.448417 -2.339532 0.000003 -0.000005 1.046422 71.244153 6.895651 1.957180 25.456955 -7.355612 0.000011 -90.940055 183.142452 5.487318 0.000001 -0.000004 -0.465747 -53.897593 -2.474476 0.784495 0.000001 -0.000002 -0.746591 66.181459 -7.073224 -1.873471 25.456853 7.355611 0.000011 
